<?xml version="1.0" encoding="UTF-8"?>
<!DOCTYPE svg PUBLIC "-//W3C//DTD SVG 1.1//EN" "http://www.w3.org/Graphics/SVG/1.1/DTD/svg11.dtd">
<svg xmlns="http://www.w3.org/2000/svg" version="1.1" width="500px" height="262px" style="shape-rendering:geometricPrecision; text-rendering:geometricPrecision; image-rendering:optimizeQuality; fill-rule:evenodd; clip-rule:evenodd" xmlns:xlink="http://www.w3.org/1999/xlink">
<g><path style="opacity:1" fill="#5e225f" d="M 180.5,107.5 C 180.402,109.553 181.069,111.22 182.5,112.5C 182.294,115.495 182.96,118.162 184.5,120.5C 185.167,120.5 185.5,120.833 185.5,121.5C 185.114,128.234 185.114,134.901 185.5,141.5C 185.5,142.833 185.5,144.167 185.5,145.5C 184.213,148.623 183.213,151.957 182.5,155.5C 182.543,156.416 182.876,157.083 183.5,157.5C 183.5,161.5 183.5,165.5 183.5,169.5C 182.839,171.134 182.506,172.967 182.5,175C 182.36,178.15 183.027,180.983 184.5,183.5C 187.641,193.303 194.307,199.303 204.5,201.5C 185.45,204.95 171.45,198.283 162.5,181.5C 157.243,165.983 155.077,149.983 156,133.5C 153.665,114.328 145.165,98.4951 130.5,86C 126.438,82.9711 122.105,80.4711 117.5,78.5C 116.508,78.6716 115.842,78.3382 115.5,77.5C 113.562,75.8372 111.228,75.1706 108.5,75.5C 82.5615,69.0918 61.0615,76.4251 44,97.5C 40.8898,102.064 38.0565,106.731 35.5,111.5C 35.5,110.5 35.5,109.5 35.5,108.5C 43.8993,85.7676 59.5659,70.4343 82.5,62.5C 85.5769,62.821 87.9103,61.821 89.5,59.5C 126.674,52.93 155.507,65.2633 176,96.5C 178.072,99.9712 179.572,103.638 180.5,107.5 Z"/></g>
<g><path style="opacity:1" fill="#906691" d="M 89.5,59.5 C 87.9103,61.821 85.5769,62.821 82.5,62.5C 84.6794,61.3228 87.0128,60.3228 89.5,59.5 Z"/></g>
<g><path style="opacity:1" fill="#4d2233" d="M 108.5,75.5 C 107.833,75.5 107.5,75.8333 107.5,76.5C 84.3695,80.9694 69.0362,94.3028 61.5,116.5C 59.7345,119.123 59.0679,122.123 59.5,125.5C 59.2256,130.263 59.559,134.93 60.5,139.5C 59.0829,142.34 59.4162,145.007 61.5,147.5C 67.7672,166.1 80.1005,178.767 98.5,185.5C 100.476,187.011 102.809,187.844 105.5,188C 74.3778,194.603 51.0444,184.103 35.5,156.5C 35.0719,153.215 34.0719,150.215 32.5,147.5C 31.5579,138.887 31.2246,130.221 31.5,121.5C 33.2562,118.531 34.5896,115.198 35.5,111.5C 38.0565,106.731 40.8898,102.064 44,97.5C 61.0615,76.4251 82.5615,69.0918 108.5,75.5 Z"/></g>
<g><path style="opacity:1" fill="#8e688d" d="M 107.5,76.5 C 107.5,75.8333 107.833,75.5 108.5,75.5C 111.228,75.1706 113.562,75.8372 115.5,77.5C 112.873,76.9084 110.206,76.5751 107.5,76.5 Z"/></g>
<g><path style="opacity:1" fill="#6e3b70" d="M 453.5,84.5 C 464.033,84.199 468.199,89.199 466,99.5C 461.261,105.082 455.761,105.915 449.5,102C 444.682,94.7321 446.016,88.8988 453.5,84.5 Z"/></g>
<g><path style="opacity:1" fill="#8b618d" d="M 295.5,100.5 C 307.086,99.501 319.419,99.1677 332.5,99.5C 332.5,95.5 332.5,91.5 332.5,87.5C 302.5,87.5 272.5,87.5 242.5,87.5C 242.5,91.5 242.5,95.5 242.5,99.5C 255.344,99.1713 268.011,99.5046 280.5,100.5C 267.5,100.5 254.5,100.5 241.5,100.5C 241.5,95.8333 241.5,91.1667 241.5,86.5C 272.5,86.5 303.5,86.5 334.5,86.5C 334.5,91.1667 334.5,95.8333 334.5,100.5C 321.5,100.5 308.5,100.5 295.5,100.5 Z"/></g>
<g><path style="opacity:1" fill="#8f6691" d="M 218.5,86.5 C 223.5,86.5 228.5,86.5 233.5,86.5C 233.5,115.167 233.5,143.833 233.5,172.5C 228.57,172.803 223.737,172.469 219,171.5C 218.5,143.169 218.333,114.835 218.5,86.5 Z"/></g>
<g><path style="opacity:1" fill="#5b1e5c" d="M 232.5,88.5 C 232.5,115.833 232.5,143.167 232.5,170.5C 228.5,170.5 224.5,170.5 220.5,170.5C 220.5,143.167 220.5,115.833 220.5,88.5C 224.5,88.5 228.5,88.5 232.5,88.5 Z"/></g>
<g><path style="opacity:1" fill="#6e366e" d="M 232.5,88.5 C 228.5,88.5 224.5,88.5 220.5,88.5C 220.5,115.833 220.5,143.167 220.5,170.5C 219.502,143.005 219.169,115.338 219.5,87.5C 224.032,87.1818 228.366,87.5151 232.5,88.5 Z"/></g>
<g><path style="opacity:1" fill="#5d205e" d="M 295.5,100.5 C 295.667,124.169 295.5,147.836 295,171.5C 290.263,172.469 285.43,172.803 280.5,172.5C 280.5,148.5 280.5,124.5 280.5,100.5C 268.011,99.5046 255.344,99.1713 242.5,99.5C 242.5,95.5 242.5,91.5 242.5,87.5C 272.5,87.5 302.5,87.5 332.5,87.5C 332.5,91.5 332.5,95.5 332.5,99.5C 319.419,99.1677 307.086,99.501 295.5,100.5 Z"/></g>
<g><path style="opacity:1" fill="#906790" d="M 341.5,86.5 C 346.5,86.5 351.5,86.5 356.5,86.5C 356.667,114.835 356.5,143.169 356,171.5C 351.333,172.833 346.667,172.833 342,171.5C 341.5,143.169 341.333,114.835 341.5,86.5 Z"/></g>
<g><path style="opacity:1" fill="#5c1f5d" d="M 342.5,87.5 C 346.833,87.5 351.167,87.5 355.5,87.5C 355.5,115.167 355.5,142.833 355.5,170.5C 351.167,170.5 346.833,170.5 342.5,170.5C 342.5,142.833 342.5,115.167 342.5,87.5 Z"/></g>
<g><path style="opacity:1" fill="#5b1e5c" d="M 386.5,157.5 C 407.14,159.489 428.14,160.155 449.5,159.5C 449.5,163.167 449.5,166.833 449.5,170.5C 424.167,170.5 398.833,170.5 373.5,170.5C 373.5,142.833 373.5,115.167 373.5,87.5C 377.833,87.5 382.167,87.5 386.5,87.5C 386.5,110.833 386.5,134.167 386.5,157.5 Z"/></g>
<g><path style="opacity:1" fill="#8c6491" d="M 387.5,157.5 C 387.167,157.5 386.833,157.5 386.5,157.5C 386.5,134.167 386.5,110.833 386.5,87.5C 382.167,87.5 377.833,87.5 373.5,87.5C 373.5,115.167 373.5,142.833 373.5,170.5C 373.5,170.833 373.5,171.167 373.5,171.5C 372.502,143.338 372.169,115.005 372.5,86.5C 377.5,86.5 382.5,86.5 387.5,86.5C 387.5,110.167 387.5,133.833 387.5,157.5 Z"/></g>
<g><path style="opacity:1" fill="#4c2132" d="M 135.5,99.5 C 129.364,99.1773 123.364,99.844 117.5,101.5C 112.874,101.475 109.541,103.475 107.5,107.5C 105.471,109.858 103.471,112.192 101.5,114.5C 98.7067,116.864 95.3734,118.53 91.5,119.5C 92.2739,120.711 93.1072,120.711 94,119.5C 94.7312,123.983 94.2312,128.317 92.5,132.5C 92.5195,133.726 92.8529,134.726 93.5,135.5C 93.5,135.833 93.5,136.167 93.5,136.5C 92.2749,137.152 91.6083,138.319 91.5,140C 90.9695,142.817 90.6361,145.65 90.5,148.5C 91.5,148.5 92.5,148.5 93.5,148.5C 93.2594,150.898 93.9261,152.898 95.5,154.5C 100.583,163.58 107.916,170.247 117.5,174.5C 106.245,176.543 95.9117,174.043 86.5,167C 83.2711,163.601 79.9378,160.435 76.5,157.5C 75.6894,153.348 74.0228,149.681 71.5,146.5C 69.3671,141.156 68.3671,135.489 68.5,129.5C 69.6935,129.03 70.3601,128.03 70.5,126.5C 71.3797,123.198 72.0463,119.865 72.5,116.5C 72.4021,114.447 73.0687,112.78 74.5,111.5C 91.4858,89.2176 112.486,84.7176 137.5,98C 136.584,98.2784 135.918,98.7784 135.5,99.5 Z"/></g>
<g><path style="opacity:1" fill="#eae3ea" d="M 461.5,99.5 C 456.7,102.781 452.867,101.781 450,96.5C 449.825,89.3532 453.325,86.5199 460.5,88C 463.394,90.9087 464.227,94.4087 463,98.5C 462.617,99.056 462.117,99.3893 461.5,99.5 Z"/></g>
<g><path style="opacity:1" fill="#663169" d="M 461.5,99.5 C 460.5,99.5 459.5,99.5 458.5,99.5C 457.399,94.2956 456.065,94.2956 454.5,99.5C 453.513,96.2317 453.18,92.8984 453.5,89.5C 456.365,89.0548 458.865,89.7215 461,91.5C 461.507,92.9961 461.007,94.1627 459.5,95C 461.037,96.1096 461.703,97.6096 461.5,99.5 Z"/></g>
<g><path style="opacity:1" fill="#e1d8e2" d="M 455.5,91.5 C 456.675,91.281 457.675,91.6143 458.5,92.5C 456.948,93.7979 455.948,93.4646 455.5,91.5 Z"/></g>
<g><path style="opacity:1" fill="#a788a8" d="M 180.5,107.5 C 181.931,108.78 182.598,110.447 182.5,112.5C 181.069,111.22 180.402,109.553 180.5,107.5 Z"/></g>
<g><path style="opacity:1" fill="#876184" d="M 35.5,108.5 C 35.5,109.5 35.5,110.5 35.5,111.5C 34.5896,115.198 33.2562,118.531 31.5,121.5C 32.0889,116.842 33.4222,112.509 35.5,108.5 Z"/></g>
<g><path style="opacity:1" fill="#a688a7" d="M 182.5,112.5 C 183.768,114.905 184.435,117.572 184.5,120.5C 182.96,118.162 182.294,115.495 182.5,112.5 Z"/></g>
<g><path style="opacity:1" fill="#67444e" d="M 101.5,114.5 C 96.8923,120.723 94.2256,127.723 93.5,135.5C 92.8529,134.726 92.5195,133.726 92.5,132.5C 94.2312,128.317 94.7312,123.983 94,119.5C 93.1072,120.711 92.2739,120.711 91.5,119.5C 95.3734,118.53 98.7067,116.864 101.5,114.5 Z"/></g>
<g><path style="opacity:1" fill="#917b82" d="M 61.5,116.5 C 61.1417,119.689 60.475,122.689 59.5,125.5C 59.0679,122.123 59.7345,119.123 61.5,116.5 Z"/></g>
<g><path style="opacity:1" fill="#81656f" d="M 72.5,116.5 C 72.0463,119.865 71.3797,123.198 70.5,126.5C 70.3601,128.03 69.6935,129.03 68.5,129.5C 69.0889,124.842 70.4222,120.509 72.5,116.5 Z"/></g>
<g><path style="opacity:1" fill="#946f96" d="M 185.5,121.5 C 186.511,128.231 186.511,134.898 185.5,141.5C 185.114,134.901 185.114,128.234 185.5,121.5 Z"/></g>
<g><path style="opacity:1" fill="#9c769c" d="M 117.5,78.5 C 122.105,80.4711 126.438,82.9711 130.5,86C 145.165,98.4951 153.665,114.328 156,133.5C 155.077,149.983 157.243,165.983 162.5,181.5C 161.883,181.389 161.383,181.056 161,180.5C 136.542,204.736 108.042,210.903 75.5,199C 56.41,190.082 43.0767,175.915 35.5,156.5C 51.0444,184.103 74.3778,194.603 105.5,188C 102.809,187.844 100.476,187.011 98.5,185.5C 101.553,185.911 104.553,186.577 107.5,187.5C 109.385,186.391 111.385,185.557 113.5,185C 107.636,183.885 102.303,181.718 97.5,178.5C 101.757,179.949 106.09,181.449 110.5,183C 112.833,183.667 115.167,183.667 117.5,183C 122.118,180.05 126.452,176.716 130.5,173C 127.113,173.815 123.613,174.648 120,175.5C 119.235,175.43 118.735,175.097 118.5,174.5C 125.768,173.693 131.934,170.693 137,165.5C 148.397,150.637 152.397,133.97 149,115.5C 147.226,109.447 144.059,104.28 139.5,100C 138.207,99.51 136.873,99.3433 135.5,99.5C 135.918,98.7784 136.584,98.2784 137.5,98C 112.486,84.7176 91.4858,89.2176 74.5,111.5C 79.9538,97.214 89.9538,87.3807 104.5,82C 108.999,80.961 113.332,79.7943 117.5,78.5 Z"/></g>
<g><path style="opacity:1" fill="#6e4e58" d="M 117.5,101.5 C 114.175,103.497 110.841,105.497 107.5,107.5C 109.541,103.475 112.874,101.475 117.5,101.5 Z"/></g>
<g><path style="opacity:1" fill="#8b7279" d="M 60.5,139.5 C 60.5751,142.206 60.9084,144.873 61.5,147.5C 59.4162,145.007 59.0829,142.34 60.5,139.5 Z"/></g>
<g><path style="opacity:1" fill="#6c4b55" d="M 93.5,136.5 C 93.2678,142.616 93.9345,148.616 95.5,154.5C 93.9261,152.898 93.2594,150.898 93.5,148.5C 92.5,148.5 91.5,148.5 90.5,148.5C 90.6361,145.65 90.9695,142.817 91.5,140C 91.6083,138.319 92.2749,137.152 93.5,136.5 Z"/></g>
<g><path style="opacity:1" fill="#785666" d="M 71.5,146.5 C 74.0228,149.681 75.6894,153.348 76.5,157.5C 73.8872,154.355 72.2205,150.689 71.5,146.5 Z"/></g>
<g><path style="opacity:1" fill="#946d95" d="M 185.5,145.5 C 185.26,149.606 184.593,153.606 183.5,157.5C 182.876,157.083 182.543,156.416 182.5,155.5C 183.213,151.957 184.213,148.623 185.5,145.5 Z"/></g>
<g><path style="opacity:1" fill="#99838b" d="M 32.5,147.5 C 34.0719,150.215 35.0719,153.215 35.5,156.5C 33.5275,153.916 32.5275,150.916 32.5,147.5 Z"/></g>
<g><path style="opacity:1" fill="#8f6a8f" d="M 386.5,157.5 C 386.833,157.5 387.167,157.5 387.5,157.5C 408.5,158.167 429.5,158.833 450.5,159.5C 450.167,159.5 449.833,159.5 449.5,159.5C 428.14,160.155 407.14,159.489 386.5,157.5 Z"/></g>
<g><path style="opacity:1" fill="#8e648e" d="M 449.5,159.5 C 449.833,159.5 450.167,159.5 450.5,159.5C 450.797,163.767 450.464,167.934 449.5,172C 423.997,172.83 398.663,172.663 373.5,171.5C 373.5,171.167 373.5,170.833 373.5,170.5C 398.833,170.5 424.167,170.5 449.5,170.5C 449.5,166.833 449.5,163.167 449.5,159.5 Z"/></g>
<g><path style="opacity:1" fill="#5d235e" d="M 76.5,157.5 C 79.9378,160.435 83.2711,163.601 86.5,167C 95.9117,174.043 106.245,176.543 117.5,174.5C 117.833,174.5 118.167,174.5 118.5,174.5C 118.735,175.097 119.235,175.43 120,175.5C 123.613,174.648 127.113,173.815 130.5,173C 126.452,176.716 122.118,180.05 117.5,183C 115.167,183.667 112.833,183.667 110.5,183C 106.09,181.449 101.757,179.949 97.5,178.5C 88.1667,173.833 81.1667,166.833 76.5,157.5 Z"/></g>
<g><path style="opacity:1" fill="#906a92" d="M 183.5,169.5 C 183.437,174.203 183.771,178.87 184.5,183.5C 183.027,180.983 182.36,178.15 182.5,175C 182.506,172.967 182.839,171.134 183.5,169.5 Z"/></g>
</svg>
